<mxfile modified="2022-05-20T05:40:29.193Z" host="app.diagrams.net" agent="5.0 (Windows NT 10.0; Win64; x64) AppleWebKit/537.36 (KHTML, like Gecko) Chrome/101.0.4951.54 Safari/537.36" etag="LOvsXaK1MsWUE6ia6RBo" compressed="false" version="18.0.8" type="google" pages="4">
  <diagram id="EGYQwjuqz1wWjmprUVej" name="Information Elements/Base System Logical Module/Tenancy/Security Profile">
    <mxGraphModel grid="1" page="1" gridSize="10" guides="1" tooltips="1" connect="1" arrows="1" fold="1" pageScale="1" pageWidth="827" pageHeight="1169" math="0" shadow="0">
      <root>
        <mxCell id="_wgqcgkbY1TDhQY_8R1c-0" />
        <mxCell id="0UL-BD-eGjF8Di4zvZsI-2" value="Diagram/ERD" parent="_wgqcgkbY1TDhQY_8R1c-0" />
        <mxCell id="mdHnttLlKYOY3KRREvG--0" value="&lt;div style=&quot;text-align: center&quot;&gt;&lt;span style=&quot;font-size: 12px ; white-space: nowrap&quot;&gt;&lt;font color=&quot;#000000&quot;&gt;Organisation&lt;/font&gt;&lt;/span&gt;&lt;span&gt;&amp;nbsp;Roles&lt;/span&gt;&lt;/div&gt;" style="rounded=1;whiteSpace=wrap;html=1;strokeColor=#666666;strokeWidth=1;fillColor=none;dashed=1;verticalAlign=top;align=left;spacingLeft=4;spacing=0;spacingTop=-5;fontColor=#666666;arcSize=16;absoluteArcSize=1;collapsible=0;container=1;recursiveResize=0;fontSize=10;labelBackgroundColor=none;" vertex="1" parent="0UL-BD-eGjF8Di4zvZsI-2">
          <mxGeometry x="470" y="270" width="100" height="160" as="geometry" />
        </mxCell>
        <mxCell id="KHTXkZkorOBY5EOqnz9a-3" value="Security&lt;br&gt;Role" style="html=1;strokeColor=#d6b656;fillColor=none;fontSize=10;strokeWidth=3;" vertex="1" parent="mdHnttLlKYOY3KRREvG--0">
          <mxGeometry x="10" y="20" width="80" height="40" as="geometry" />
        </mxCell>
        <mxCell id="MfHsJAEJiJiVs6-YhBWi-2" value="Organisation Member" style="rounded=1;whiteSpace=wrap;html=1;strokeColor=#666666;strokeWidth=1;fillColor=none;dashed=1;verticalAlign=top;align=left;spacingLeft=4;spacing=0;spacingTop=-5;fontColor=#666666;arcSize=16;absoluteArcSize=1;collapsible=0;container=1;recursiveResize=0;fontSize=10;labelBackgroundColor=none;" vertex="1" parent="0UL-BD-eGjF8Di4zvZsI-2">
          <mxGeometry x="250" y="360" width="100" height="70" as="geometry" />
        </mxCell>
        <mxCell id="MfHsJAEJiJiVs6-YhBWi-4" value="&amp;nbsp;Member" style="strokeWidth=3;whiteSpace=wrap;html=1;align=center;fontSize=10;fillColor=none;strokeColor=#d6b656;" vertex="1" parent="MfHsJAEJiJiVs6-YhBWi-2">
          <mxGeometry x="10" y="20" width="80" height="40" as="geometry" />
        </mxCell>
        <mxCell id="KHTXkZkorOBY5EOqnz9a-0" style="rounded=0;orthogonalLoop=1;jettySize=auto;elbow=vertical;html=1;entryX=0;entryY=0.5;entryDx=0;entryDy=0;startArrow=ERzeroToMany;startFill=1;endArrow=ERmandOne;endFill=0;startSize=6;endSize=6;exitX=1;exitY=0.5;exitDx=0;exitDy=0;" edge="1" parent="0UL-BD-eGjF8Di4zvZsI-2" source="w6Pg6aZoALvAvk-014cD-0" target="KHTXkZkorOBY5EOqnz9a-13">
          <mxGeometry relative="1" as="geometry">
            <mxPoint x="620" y="403" as="sourcePoint" />
          </mxGeometry>
        </mxCell>
        <mxCell id="KHTXkZkorOBY5EOqnz9a-4" value="" style="edgeStyle=orthogonalEdgeStyle;rounded=1;orthogonalLoop=1;jettySize=auto;html=1;startSize=6;endArrow=none;endFill=0;endSize=6;fontSize=10;fontColor=#000000;exitX=0;exitY=0.5;exitDx=0;exitDy=0;jumpStyle=arc;sourcePerimeterSpacing=0;targetPerimeterSpacing=0;startArrow=ERzeroToMany;startFill=1;entryX=0.5;entryY=0;entryDx=0;entryDy=0;" edge="1" parent="0UL-BD-eGjF8Di4zvZsI-2" source="KHTXkZkorOBY5EOqnz9a-3" target="KHTXkZkorOBY5EOqnz9a-2">
          <mxGeometry relative="1" as="geometry">
            <mxPoint x="139.84489493534483" y="57.34481074892241" as="sourcePoint" />
            <mxPoint x="560" y="400" as="targetPoint" />
            <Array as="points">
              <mxPoint x="410" y="310" />
            </Array>
          </mxGeometry>
        </mxCell>
        <mxCell id="KHTXkZkorOBY5EOqnz9a-7" value="" style="endArrow=none;endFill=0;endSize=6;html=1;fontSize=10;fontColor=#000000;edgeStyle=orthogonalEdgeStyle;jumpStyle=arc;rounded=1;exitX=0.5;exitY=0;exitDx=0;exitDy=0;entryX=0.5;entryY=1;entryDx=0;entryDy=0;sourcePerimeterSpacing=0;targetPerimeterSpacing=0;startSize=6;startArrow=ERzeroToMany;startFill=1;" edge="1" parent="0UL-BD-eGjF8Di4zvZsI-2" source="w6Pg6aZoALvAvk-014cD-0" target="KHTXkZkorOBY5EOqnz9a-3">
          <mxGeometry width="160" relative="1" as="geometry">
            <mxPoint x="520.0448949353449" y="538.5448107489225" as="sourcePoint" />
            <mxPoint x="169.84489493534483" y="-12.655189251077587" as="targetPoint" />
          </mxGeometry>
        </mxCell>
        <mxCell id="KHTXkZkorOBY5EOqnz9a-8" value="" style="endArrow=ERmandOne;endFill=0;endSize=6;html=1;fontSize=10;fontColor=#000000;jumpStyle=arc;rounded=1;exitX=0;exitY=0.5;exitDx=0;exitDy=0;strokeColor=#999999;sourcePerimeterSpacing=0;targetPerimeterSpacing=0;startSize=6;startArrow=ERzeroToMany;startFill=1;edgeStyle=orthogonalEdgeStyle;entryX=1;entryY=0.5;entryDx=0;entryDy=0;" edge="1" parent="0UL-BD-eGjF8Di4zvZsI-2" source="w6Pg6aZoALvAvk-014cD-0" target="KHTXkZkorOBY5EOqnz9a-2">
          <mxGeometry width="160" relative="1" as="geometry">
            <mxPoint x="480.04489493534487" y="558.5448107489225" as="sourcePoint" />
            <mxPoint x="560" y="399" as="targetPoint" />
            <Array as="points">
              <mxPoint x="580" y="399" />
              <mxPoint x="580" y="400" />
            </Array>
          </mxGeometry>
        </mxCell>
        <mxCell id="KHTXkZkorOBY5EOqnz9a-11" value="Module defined&lt;br&gt;Obligations and Permissions" style="rounded=1;whiteSpace=wrap;html=1;strokeColor=#999999;strokeWidth=1;fillColor=none;dashed=1;verticalAlign=top;align=left;spacingLeft=4;spacing=0;spacingTop=-5;fontColor=#808080;arcSize=16;absoluteArcSize=1;collapsible=0;container=1;recursiveResize=0;fontSize=10;" vertex="1" parent="0UL-BD-eGjF8Di4zvZsI-2">
          <mxGeometry x="580" y="240" width="100" height="190" as="geometry" />
        </mxCell>
        <mxCell id="KHTXkZkorOBY5EOqnz9a-13" value="&lt;font style=&quot;font-size: 9px&quot;&gt;[System] Module&lt;br&gt;Defined Obligation&amp;nbsp;&lt;br&gt;or Permission &lt;br&gt;&lt;/font&gt;" style="html=1;strokeColor=#82b366;fillColor=none;fontSize=10;strokeWidth=3;" vertex="1" parent="KHTXkZkorOBY5EOqnz9a-11">
          <mxGeometry x="10" y="140" width="80" height="40" as="geometry" />
        </mxCell>
        <mxCell id="KHTXkZkorOBY5EOqnz9a-17" style="edgeStyle=elbowEdgeStyle;rounded=1;orthogonalLoop=1;jettySize=auto;html=1;startArrow=none;startFill=0;startSize=6;endArrow=ERzeroToMany;endFill=1;endSize=6;fontSize=10;fontColor=#B3B3B3;entryX=0.5;entryY=0;entryDx=0;entryDy=0;" edge="1" parent="KHTXkZkorOBY5EOqnz9a-11" source="KHTXkZkorOBY5EOqnz9a-18" target="KHTXkZkorOBY5EOqnz9a-13">
          <mxGeometry relative="1" as="geometry">
            <mxPoint x="50" y="150" as="targetPoint" />
          </mxGeometry>
        </mxCell>
        <mxCell id="KHTXkZkorOBY5EOqnz9a-18" value="[System]&lt;br&gt;Module" style="html=1;strokeColor=#82b366;fillColor=none;fontSize=10;strokeWidth=3;" vertex="1" parent="KHTXkZkorOBY5EOqnz9a-11">
          <mxGeometry x="10" y="60" width="80" height="40" as="geometry" />
        </mxCell>
        <mxCell id="w6Pg6aZoALvAvk-014cD-0" value="&lt;font style=&quot;font-size: 8px&quot;&gt;[&lt;span style=&quot;font-size: 12px&quot;&gt;Group&lt;/span&gt;]&lt;br&gt;&amp;nbsp;Obligation/Permission &lt;br&gt;+/- Assignment&lt;/font&gt;" style="shape=associativeEntity;whiteSpace=wrap;html=1;align=center;fontFamily=Helvetica;fontSize=10;fontColor=#000000;strokeColor=#d6b656;strokeWidth=1;" vertex="1" parent="0UL-BD-eGjF8Di4zvZsI-2">
          <mxGeometry x="480" y="380" width="80" height="40" as="geometry" />
        </mxCell>
        <mxCell id="w6Pg6aZoALvAvk-014cD-1" style="edgeStyle=none;rounded=1;orthogonalLoop=1;jettySize=auto;html=1;entryX=0;entryY=0.5;entryDx=0;entryDy=0;startArrow=ERmandOne;startFill=0;endArrow=ERoneToMany;endFill=0;strokeColor=#000000;fontFamily=Helvetica;fontSize=10;fontColor=#666666;exitX=1;exitY=0.5;exitDx=0;exitDy=0;" edge="1" parent="0UL-BD-eGjF8Di4zvZsI-2" source="MfHsJAEJiJiVs6-YhBWi-4" target="KHTXkZkorOBY5EOqnz9a-2">
          <mxGeometry relative="1" as="geometry" />
        </mxCell>
        <mxCell id="z9kA-3dowBohKA3oo8xj-5" value="Organisation Member Profile" style="rounded=1;whiteSpace=wrap;html=1;strokeColor=#999999;strokeWidth=1;fillColor=none;dashed=1;verticalAlign=top;align=left;spacingLeft=4;spacing=0;spacingTop=-5;fontColor=#808080;arcSize=16;absoluteArcSize=1;collapsible=0;container=1;recursiveResize=0;fontSize=10;" vertex="1" parent="0UL-BD-eGjF8Di4zvZsI-2">
          <mxGeometry x="360" y="270" width="100" height="160" as="geometry" />
        </mxCell>
        <mxCell id="KHTXkZkorOBY5EOqnz9a-2" value="Security&lt;br&gt;Profile" style="html=1;strokeColor=#d6b656;fillColor=none;fontSize=10;strokeWidth=3;" vertex="1" parent="z9kA-3dowBohKA3oo8xj-5">
          <mxGeometry x="10" y="110" width="80" height="40" as="geometry" />
        </mxCell>
        <mxCell id="-wEZ2jnkp1AjvyI5aL4N-0" value="Context/Legend" parent="_wgqcgkbY1TDhQY_8R1c-0" />
        <mxCell id="-wEZ2jnkp1AjvyI5aL4N-1" value="" style="rounded=0;whiteSpace=wrap;html=1;fontSize=10;align=left;container=1;collapsible=0;fontColor=#B3B3B3;strokeColor=#B3B3B3;" vertex="1" parent="-wEZ2jnkp1AjvyI5aL4N-0">
          <mxGeometry x="440" y="180" width="240" height="50" as="geometry" />
        </mxCell>
        <mxCell id="-wEZ2jnkp1AjvyI5aL4N-2" value="" style="whiteSpace=wrap;html=1;aspect=fixed;fillColor=none;strokeColor=#82b366;fontSize=10;align=left;fontStyle=2;strokeWidth=2;" vertex="1" parent="-wEZ2jnkp1AjvyI5aL4N-1">
          <mxGeometry x="13.294460641399398" y="16.666666666666668" width="8.333333333333334" height="8.333333333333334" as="geometry" />
        </mxCell>
        <mxCell id="-wEZ2jnkp1AjvyI5aL4N-3" value="" style="whiteSpace=wrap;html=1;aspect=fixed;fillColor=none;strokeColor=#d6b656;fontSize=10;align=left;fontStyle=2;strokeWidth=2;" vertex="1" parent="-wEZ2jnkp1AjvyI5aL4N-1">
          <mxGeometry x="13.294460641399398" y="28" width="8.333333333333334" height="8.333333333333334" as="geometry" />
        </mxCell>
        <mxCell id="-wEZ2jnkp1AjvyI5aL4N-4" value="" style="whiteSpace=wrap;html=1;aspect=fixed;fillColor=none;strokeColor=#6c8ebf;fontSize=10;align=left;fontStyle=2;strokeWidth=2;" vertex="1" parent="-wEZ2jnkp1AjvyI5aL4N-1">
          <mxGeometry x="13.294460641399398" y="39.333333333333336" width="8.333333333333334" height="8.333333333333334" as="geometry" />
        </mxCell>
        <mxCell id="-wEZ2jnkp1AjvyI5aL4N-5" value="Internal, System (underlying optional Tenants)&amp;nbsp;" style="text;html=1;strokeColor=none;fillColor=none;align=left;verticalAlign=middle;whiteSpace=wrap;rounded=0;fontSize=10;fontStyle=2;fontColor=#B3B3B3;" vertex="1" parent="-wEZ2jnkp1AjvyI5aL4N-1">
          <mxGeometry x="26.5945189504373" y="16.666666666666668" width="213.40548104956264" height="8.333333333333334" as="geometry" />
        </mxCell>
        <mxCell id="-wEZ2jnkp1AjvyI5aL4N-6" value="Internal, (optionally) Tenanted" style="text;html=1;strokeColor=none;fillColor=none;align=left;verticalAlign=middle;whiteSpace=wrap;rounded=0;fontSize=10;fontStyle=2;fontColor=#B3B3B3;" vertex="1" parent="-wEZ2jnkp1AjvyI5aL4N-1">
          <mxGeometry x="26.59" y="30" width="213.41" height="6.33" as="geometry" />
        </mxCell>
        <mxCell id="-wEZ2jnkp1AjvyI5aL4N-7" value="External, Versioned Contracts/Msgs" style="text;html=1;strokeColor=none;fillColor=none;align=left;verticalAlign=middle;whiteSpace=wrap;rounded=0;fontSize=10;fontStyle=2;fontColor=#B3B3B3;" vertex="1" parent="-wEZ2jnkp1AjvyI5aL4N-1">
          <mxGeometry x="26.5945189504373" y="39.333333333333336" width="213.40548104956264" height="8.333333333333334" as="geometry" />
        </mxCell>
        <mxCell id="-wEZ2jnkp1AjvyI5aL4N-8" value="Legend" style="text;html=1;strokeColor=none;fillColor=none;align=center;verticalAlign=middle;whiteSpace=wrap;rounded=0;fontSize=10;fontStyle=5;fontColor=#B3B3B3;" vertex="1" parent="-wEZ2jnkp1AjvyI5aL4N-1">
          <mxGeometry x="26.588921282798815" width="159.53352769679296" height="16.666666666666668" as="geometry" />
        </mxCell>
        <mxCell id="PbPdJi49Ya_I80cVDi3L-1" value="Title/Diagram" parent="_wgqcgkbY1TDhQY_8R1c-0" />
        <mxCell id="PbPdJi49Ya_I80cVDi3L-2" value="&lt;font style=&quot;font-size: 12px&quot;&gt;Diagram: Information - Information Model Part - Base System Module -&lt;br&gt;Domain Members Permissions Management Elements&lt;/font&gt;" style="text;strokeColor=none;fillColor=none;html=1;fontSize=12;fontStyle=2;verticalAlign=middle;align=left;shadow=0;glass=0;comic=0;opacity=30;fontColor=#808080;" vertex="1" parent="PbPdJi49Ya_I80cVDi3L-1">
          <mxGeometry x="120" y="480" width="520" height="20" as="geometry" />
        </mxCell>
        <UserObject label="" tooltip="ABOUT&#xa;&#xa;In each Organisation a Principal has one Organisation Member profile, and one Organisation Security Profile.&#xa;&#xa;The Organisation Security Profile is associated to Roles, which in turn are associated to module defined Permissions.&#xa;&#xa;&#xa;&#xa;Note that the Permissions are joined to Roles via Join Objects. The Join Object allows for decorating the edge between the two vertices with an Attribute which defines whether the Permission is being Added or Removed.&#xa;&#xa;&#xa;&#xa;In this way, all Accountants can be added to the Accountant Role -- but the Account group manager can be assigned a special permission (&quot;CanSignChecksOver50K&quot;). &#xa;&#xa;&#xa;&#xa;&#xa;&#xa;&#xa;&#xa; " id="2j_NLHrY2PzKNB3L4NL6-0">
          <mxCell style="shape=image;html=1;verticalAlign=top;verticalLabelPosition=bottom;labelBackgroundColor=#ffffff;imageAspect=0;aspect=fixed;image=https://cdn1.iconfinder.com/data/icons/hawcons/32/699014-icon-28-information-128.png;shadow=0;dashed=0;fontFamily=Helvetica;fontSize=12;fontColor=#000000;align=center;strokeColor=#000000;fillColor=#505050;dashPattern=1 1;" vertex="1" parent="PbPdJi49Ya_I80cVDi3L-1">
            <mxGeometry x="660" y="480" width="20" height="20" as="geometry" />
          </mxCell>
        </UserObject>
        <mxCell id="0UL-BD-eGjF8Di4zvZsI-0" value="Title/Page" visible="0" parent="_wgqcgkbY1TDhQY_8R1c-0" />
        <mxCell id="4VyKvhNugIrODMnI0Zfo-0" value="" style="group;fontSize=12;" vertex="1" connectable="0" parent="0UL-BD-eGjF8Di4zvZsI-0">
          <mxGeometry x="120" y="120" width="560" height="50" as="geometry" />
        </mxCell>
        <mxCell id="4VyKvhNugIrODMnI0Zfo-1" value="&lt;font style=&quot;font-size: 12px&quot;&gt;Base Logical Module - Information -&amp;nbsp;Organisation Members Permissions Management Elements&lt;/font&gt;" style="text;strokeColor=none;fillColor=none;html=1;fontSize=12;fontStyle=1;verticalAlign=middle;align=left;shadow=0;glass=0;comic=0;opacity=30;fontColor=#808080;" vertex="1" parent="4VyKvhNugIrODMnI0Zfo-0">
          <mxGeometry width="560" height="40" as="geometry" />
        </mxCell>
        <mxCell id="4VyKvhNugIrODMnI0Zfo-2" value="" style="line;strokeWidth=2;html=1;shadow=0;glass=0;comic=0;fillColor=none;fontSize=12;fontColor=#CCCCCC;labelBackgroundColor=none;strokeColor=#CCCCCC;" vertex="1" parent="4VyKvhNugIrODMnI0Zfo-0">
          <mxGeometry y="35" width="560" height="10" as="geometry" />
        </mxCell>
        <mxCell id="IvmF1WDpACzpJyzRlpbi-0" value="&lt;span style=&quot;color: rgb(0 , 0 , 0) ; font-family: &amp;#34;helvetica&amp;#34; , &amp;#34;arial&amp;#34; , sans-serif ; font-size: 0px&quot;&gt;%3CmxGraphModel%3E%3Croot%3E%3CmxCell%20id%3D%220%22%2F%3E%3CmxCell%20id%3D%221%22%20parent%3D%220%22%2F%3E%3CmxCell%20id%3D%222%22%20style%3D%22edgeStyle%3Dnone%3Brounded%3D1%3BorthogonalLoop%3D1%3BjettySize%3Dauto%3Bhtml%3D1%3BstartArrow%3DERmandOne%3BstartFill%3D0%3BendArrow%3DERzeroToMany%3BendFill%3D1%3BstrokeColor%3D%23000000%3BfontFamily%3DHelvetica%3BfontSize%3D10%3BfontColor%3D%23666666%3B%22%20edge%3D%221%22%20parent%3D%221%22%3E%3CmxGeometry%20relative%3D%221%22%20as%3D%22geometry%22%3E%3CmxPoint%20x%3D%22130%22%20y%3D%22220%22%20as%3D%22sourcePoint%22%2F%3E%3CmxPoint%20x%3D%22170%22%20y%3D%22220%22%20as%3D%22targetPoint%22%2F%3E%3C%2FmxGeometry%3E%3C%2FmxCell%3E%3C%2Froot%3E%3C%2FmxGraphModel%3E&lt;/span&gt;" style="text;html=1;resizable=0;points=[];autosize=1;align=left;verticalAlign=top;spacingTop=-4;fontSize=10;fontFamily=Helvetica;fontColor=#666666;" vertex="1" parent="0UL-BD-eGjF8Di4zvZsI-0">
          <mxGeometry x="531" y="424" width="20" height="20" as="geometry" />
        </mxCell>
        <mxCell id="_wgqcgkbY1TDhQY_8R1c-1" value="About" parent="_wgqcgkbY1TDhQY_8R1c-0" />
      </root>
    </mxGraphModel>
  </diagram>
  <diagram name="Information Elements/Base System Logical Module/Tenancy/Member Resource Collection" id="cbpPMSsaKpMvE33dEfNv">
    <mxGraphModel dx="1130" dy="406" grid="1" gridSize="10" guides="1" tooltips="1" connect="1" arrows="1" fold="1" page="1" pageScale="1" pageWidth="827" pageHeight="1169" math="0" shadow="0">
      <root>
        <mxCell id="BW74TqNR_rzEYvxKwgzW-0" />
        <mxCell id="BW74TqNR_rzEYvxKwgzW-36" value="Diagram/ERD" parent="BW74TqNR_rzEYvxKwgzW-0" />
        <mxCell id="BW74TqNR_rzEYvxKwgzW-42" style="edgeStyle=none;rounded=1;orthogonalLoop=1;jettySize=auto;html=1;entryX=0;entryY=0.5;entryDx=0;entryDy=0;startArrow=ERmandOne;startFill=0;endArrow=ERoneToMany;endFill=0;strokeColor=#000000;fontFamily=Helvetica;fontSize=10;fontColor=#666666;exitX=1;exitY=0.5;exitDx=0;exitDy=0;" parent="BW74TqNR_rzEYvxKwgzW-36" source="BW74TqNR_rzEYvxKwgzW-41" target="BW74TqNR_rzEYvxKwgzW-5" edge="1">
          <mxGeometry relative="1" as="geometry">
            <mxPoint x="220" y="400" as="sourcePoint" />
            <mxPoint x="250" y="400" as="targetPoint" />
          </mxGeometry>
        </mxCell>
        <mxCell id="7zvSKc8wU0ipjnV0RsOc-0" value="Default Collection Names" style="rounded=1;whiteSpace=wrap;html=1;strokeColor=#666666;strokeWidth=1;fillColor=none;dashed=1;verticalAlign=top;align=left;spacingLeft=4;spacing=0;spacingTop=-5;fontColor=#666666;arcSize=16;absoluteArcSize=1;collapsible=0;container=1;recursiveResize=0;fontSize=10;labelBackgroundColor=none;" parent="BW74TqNR_rzEYvxKwgzW-36" vertex="1">
          <mxGeometry x="233.14" y="240" width="100" height="80" as="geometry" />
        </mxCell>
        <mxCell id="7zvSKc8wU0ipjnV0RsOc-1" value="[System]&lt;br&gt;Resource Collection Name" style="strokeWidth=3;whiteSpace=wrap;html=1;align=center;fontSize=10;fillColor=none;strokeColor=#82b366;" parent="7zvSKc8wU0ipjnV0RsOc-0" vertex="1">
          <mxGeometry x="10" y="30" width="80" height="40" as="geometry" />
        </mxCell>
        <mxCell id="BW74TqNR_rzEYvxKwgzW-28" value="Member Resource Collection" style="rounded=1;whiteSpace=wrap;html=1;strokeColor=#999999;strokeWidth=1;fillColor=none;dashed=1;verticalAlign=top;align=left;spacingLeft=4;spacing=0;spacingTop=-5;fontColor=#808080;arcSize=16;absoluteArcSize=1;collapsible=0;container=1;recursiveResize=0;fontSize=10;" parent="BW74TqNR_rzEYvxKwgzW-36" vertex="1">
          <mxGeometry x="233.14" y="350" width="100" height="80" as="geometry" />
        </mxCell>
        <mxCell id="BW74TqNR_rzEYvxKwgzW-41" value="Member &lt;br&gt;Resource &lt;br&gt;Collection" style="html=1;strokeColor=#d6b656;fillColor=none;fontSize=10;strokeWidth=3;" parent="BW74TqNR_rzEYvxKwgzW-28" vertex="1">
          <mxGeometry x="10" y="30" width="80" height="40" as="geometry" />
        </mxCell>
        <mxCell id="BW74TqNR_rzEYvxKwgzW-4" value="&lt;div style=&quot;text-align: center&quot;&gt;&lt;font color=&quot;#000000&quot;&gt;&lt;span style=&quot;font-size: 12px ; white-space: nowrap&quot;&gt;Resource &lt;br&gt;Metadata&lt;/span&gt;&lt;/font&gt;&lt;/div&gt;" style="rounded=1;whiteSpace=wrap;html=1;strokeColor=#666666;strokeWidth=1;fillColor=none;dashed=1;verticalAlign=top;align=left;spacingLeft=4;spacing=0;spacingTop=-5;fontColor=#666666;arcSize=16;absoluteArcSize=1;collapsible=0;container=1;recursiveResize=0;fontSize=10;labelBackgroundColor=none;" parent="BW74TqNR_rzEYvxKwgzW-36" vertex="1">
          <mxGeometry x="350" y="350" width="100" height="80" as="geometry" />
        </mxCell>
        <mxCell id="BW74TqNR_rzEYvxKwgzW-5" value="Resource&lt;br&gt;Metadata" style="html=1;strokeColor=#d6b656;fillColor=none;fontSize=10;strokeWidth=3;" parent="BW74TqNR_rzEYvxKwgzW-4" vertex="1">
          <mxGeometry x="10" y="30" width="80" height="40" as="geometry" />
        </mxCell>
        <mxCell id="BW74TqNR_rzEYvxKwgzW-11" value="Organisation Member" style="rounded=1;whiteSpace=wrap;html=1;strokeColor=#666666;strokeWidth=1;fillColor=none;dashed=1;verticalAlign=top;align=left;spacingLeft=4;spacing=0;spacingTop=-5;fontColor=#666666;arcSize=16;absoluteArcSize=1;collapsible=0;container=1;recursiveResize=0;fontSize=10;labelBackgroundColor=none;" parent="BW74TqNR_rzEYvxKwgzW-36" vertex="1">
          <mxGeometry x="120" y="350" width="100" height="80" as="geometry" />
        </mxCell>
        <mxCell id="BW74TqNR_rzEYvxKwgzW-12" value="Member" style="strokeWidth=3;whiteSpace=wrap;html=1;align=center;fontSize=10;fillColor=none;strokeColor=#d6b656;" parent="BW74TqNR_rzEYvxKwgzW-11" vertex="1">
          <mxGeometry x="10" y="30" width="80" height="40" as="geometry" />
        </mxCell>
        <mxCell id="BW74TqNR_rzEYvxKwgzW-27" style="edgeStyle=none;rounded=1;orthogonalLoop=1;jettySize=auto;html=1;entryX=0;entryY=0.5;entryDx=0;entryDy=0;startArrow=ERmandOne;startFill=0;endArrow=ERoneToMany;endFill=0;strokeColor=#000000;fontFamily=Helvetica;fontSize=10;fontColor=#666666;exitX=1;exitY=0.5;exitDx=0;exitDy=0;" parent="BW74TqNR_rzEYvxKwgzW-36" source="BW74TqNR_rzEYvxKwgzW-12" target="BW74TqNR_rzEYvxKwgzW-41" edge="1">
          <mxGeometry relative="1" as="geometry">
            <mxPoint x="240" y="390" as="targetPoint" />
          </mxGeometry>
        </mxCell>
        <mxCell id="rXs7Ai5y3zTIHXF6h2ff-0" value="Context/Legend" parent="BW74TqNR_rzEYvxKwgzW-0" />
        <mxCell id="rXs7Ai5y3zTIHXF6h2ff-1" value="" style="rounded=0;whiteSpace=wrap;html=1;fontSize=10;align=left;container=1;collapsible=0;fontColor=#B3B3B3;strokeColor=#B3B3B3;" parent="rXs7Ai5y3zTIHXF6h2ff-0" vertex="1">
          <mxGeometry x="440" y="180" width="240" height="50" as="geometry" />
        </mxCell>
        <mxCell id="rXs7Ai5y3zTIHXF6h2ff-2" value="" style="whiteSpace=wrap;html=1;aspect=fixed;fillColor=none;strokeColor=#82b366;fontSize=10;align=left;fontStyle=2;strokeWidth=2;" parent="rXs7Ai5y3zTIHXF6h2ff-1" vertex="1">
          <mxGeometry x="13.294460641399398" y="16.666666666666668" width="8.333333333333334" height="8.333333333333334" as="geometry" />
        </mxCell>
        <mxCell id="rXs7Ai5y3zTIHXF6h2ff-3" value="" style="whiteSpace=wrap;html=1;aspect=fixed;fillColor=none;strokeColor=#d6b656;fontSize=10;align=left;fontStyle=2;strokeWidth=2;" parent="rXs7Ai5y3zTIHXF6h2ff-1" vertex="1">
          <mxGeometry x="13.294460641399398" y="28" width="8.333333333333334" height="8.333333333333334" as="geometry" />
        </mxCell>
        <mxCell id="rXs7Ai5y3zTIHXF6h2ff-4" value="" style="whiteSpace=wrap;html=1;aspect=fixed;fillColor=none;strokeColor=#6c8ebf;fontSize=10;align=left;fontStyle=2;strokeWidth=2;" parent="rXs7Ai5y3zTIHXF6h2ff-1" vertex="1">
          <mxGeometry x="13.294460641399398" y="39.333333333333336" width="8.333333333333334" height="8.333333333333334" as="geometry" />
        </mxCell>
        <mxCell id="rXs7Ai5y3zTIHXF6h2ff-5" value="Internal, System (underlying optional Tenants)&amp;nbsp;" style="text;html=1;strokeColor=none;fillColor=none;align=left;verticalAlign=middle;whiteSpace=wrap;rounded=0;fontSize=10;fontStyle=2;fontColor=#B3B3B3;" parent="rXs7Ai5y3zTIHXF6h2ff-1" vertex="1">
          <mxGeometry x="26.5945189504373" y="16.666666666666668" width="213.40548104956264" height="8.333333333333334" as="geometry" />
        </mxCell>
        <mxCell id="rXs7Ai5y3zTIHXF6h2ff-6" value="Internal, (optionally) Tenanted" style="text;html=1;strokeColor=none;fillColor=none;align=left;verticalAlign=middle;whiteSpace=wrap;rounded=0;fontSize=10;fontStyle=2;fontColor=#B3B3B3;" parent="rXs7Ai5y3zTIHXF6h2ff-1" vertex="1">
          <mxGeometry x="26.59" y="30" width="213.41" height="6.33" as="geometry" />
        </mxCell>
        <mxCell id="rXs7Ai5y3zTIHXF6h2ff-7" value="External, Versioned Contracts/Msgs" style="text;html=1;strokeColor=none;fillColor=none;align=left;verticalAlign=middle;whiteSpace=wrap;rounded=0;fontSize=10;fontStyle=2;fontColor=#B3B3B3;" parent="rXs7Ai5y3zTIHXF6h2ff-1" vertex="1">
          <mxGeometry x="26.5945189504373" y="39.333333333333336" width="213.40548104956264" height="8.333333333333334" as="geometry" />
        </mxCell>
        <mxCell id="rXs7Ai5y3zTIHXF6h2ff-8" value="Legend" style="text;html=1;strokeColor=none;fillColor=none;align=center;verticalAlign=middle;whiteSpace=wrap;rounded=0;fontSize=10;fontStyle=5;fontColor=#B3B3B3;" parent="rXs7Ai5y3zTIHXF6h2ff-1" vertex="1">
          <mxGeometry x="26.588921282798815" width="159.53352769679296" height="16.666666666666668" as="geometry" />
        </mxCell>
        <mxCell id="mLR0W2UQsULb2gRtbMzG-0" value="Title/Diagram" parent="BW74TqNR_rzEYvxKwgzW-0" />
        <mxCell id="mLR0W2UQsULb2gRtbMzG-1" value="&lt;font style=&quot;font-weight: normal; font-size: 12px;&quot;&gt;&lt;i style=&quot;font-size: 12px&quot;&gt;Diagram: Information -&amp;nbsp;&lt;/i&gt;&lt;/font&gt;&lt;span style=&quot;font-size: 12px ; font-style: italic ; font-weight: 400&quot;&gt;Information Model Part - Base System Module -&lt;/span&gt;&lt;font style=&quot;font-weight: normal; font-size: 12px;&quot;&gt;&lt;i style=&quot;font-size: 12px&quot;&gt;&lt;br style=&quot;font-size: 12px;&quot;&gt;Member Resource Collection Management Elements&lt;/i&gt;&lt;/font&gt;" style="text;strokeColor=none;fillColor=none;html=1;fontSize=12;fontStyle=1;verticalAlign=middle;align=left;shadow=0;glass=0;comic=0;opacity=30;fontColor=#808080;" parent="mLR0W2UQsULb2gRtbMzG-0" vertex="1">
          <mxGeometry x="120" y="456" width="520" height="20" as="geometry" />
        </mxCell>
        <mxCell id="BW74TqNR_rzEYvxKwgzW-3" value="Title/Page" parent="BW74TqNR_rzEYvxKwgzW-0" visible="0" />
        <mxCell id="BW74TqNR_rzEYvxKwgzW-6" value="" style="group;fontSize=12;" parent="BW74TqNR_rzEYvxKwgzW-3" vertex="1" connectable="0">
          <mxGeometry x="120" y="120" width="560" height="50" as="geometry" />
        </mxCell>
        <mxCell id="BW74TqNR_rzEYvxKwgzW-7" value="&lt;font style=&quot;font-size: 12px&quot;&gt;Information -&amp;nbsp;Member Resource Collection Management Elements&lt;/font&gt;" style="text;strokeColor=none;fillColor=none;html=1;fontSize=12;fontStyle=1;verticalAlign=middle;align=left;shadow=0;glass=0;comic=0;opacity=30;fontColor=#808080;" parent="BW74TqNR_rzEYvxKwgzW-6" vertex="1">
          <mxGeometry width="560" height="40" as="geometry" />
        </mxCell>
        <mxCell id="BW74TqNR_rzEYvxKwgzW-8" value="" style="line;strokeWidth=2;html=1;shadow=0;glass=0;comic=0;fillColor=none;fontSize=12;fontColor=#CCCCCC;labelBackgroundColor=none;strokeColor=#CCCCCC;" parent="BW74TqNR_rzEYvxKwgzW-6" vertex="1">
          <mxGeometry y="35" width="560" height="10" as="geometry" />
        </mxCell>
        <mxCell id="BW74TqNR_rzEYvxKwgzW-16" value="&lt;span style=&quot;color: rgb(0 , 0 , 0) ; font-family: &amp;#34;helvetica&amp;#34; , &amp;#34;arial&amp;#34; , sans-serif ; font-size: 0px&quot;&gt;%3CmxGraphModel%3E%3Croot%3E%3CmxCell%20id%3D%220%22%2F%3E%3CmxCell%20id%3D%221%22%20parent%3D%220%22%2F%3E%3CmxCell%20id%3D%222%22%20style%3D%22edgeStyle%3Dnone%3Brounded%3D1%3BorthogonalLoop%3D1%3BjettySize%3Dauto%3Bhtml%3D1%3BstartArrow%3DERmandOne%3BstartFill%3D0%3BendArrow%3DERzeroToMany%3BendFill%3D1%3BstrokeColor%3D%23000000%3BfontFamily%3DHelvetica%3BfontSize%3D10%3BfontColor%3D%23666666%3B%22%20edge%3D%221%22%20parent%3D%221%22%3E%3CmxGeometry%20relative%3D%221%22%20as%3D%22geometry%22%3E%3CmxPoint%20x%3D%22130%22%20y%3D%22220%22%20as%3D%22sourcePoint%22%2F%3E%3CmxPoint%20x%3D%22170%22%20y%3D%22220%22%20as%3D%22targetPoint%22%2F%3E%3C%2FmxGeometry%3E%3C%2FmxCell%3E%3C%2Froot%3E%3C%2FmxGraphModel%3E&lt;/span&gt;" style="text;html=1;resizable=0;points=[];autosize=1;align=left;verticalAlign=top;spacingTop=-4;fontSize=10;fontFamily=Helvetica;fontColor=#666666;" parent="BW74TqNR_rzEYvxKwgzW-3" vertex="1">
          <mxGeometry x="401" y="370" width="20" height="20" as="geometry" />
        </mxCell>
        <mxCell id="BW74TqNR_rzEYvxKwgzW-1" value="About" parent="BW74TqNR_rzEYvxKwgzW-0" />
        <UserObject label="" tooltip="ABOUT&#xa;&#xa;Each Organisation Member should be able to save a reference to Resource to a personal Collection/List.&#xa;&#xa;As an example, in Amazon Online, one can save an Item to a Shopping List, a Wish List, or any other Custom List (Review Later, etc.) the Member decides to create.&#xa;&#xa;&#xa;&#xa;&#xa;&#xa; " id="TWwMRz7pKJvng9Z709zu-0">
          <mxCell style="shape=image;html=1;verticalAlign=top;verticalLabelPosition=bottom;labelBackgroundColor=#ffffff;imageAspect=0;aspect=fixed;image=https://cdn1.iconfinder.com/data/icons/hawcons/32/699014-icon-28-information-128.png;shadow=0;dashed=0;fontFamily=Helvetica;fontSize=12;fontColor=#000000;align=center;strokeColor=#000000;fillColor=#505050;dashPattern=1 1;" parent="BW74TqNR_rzEYvxKwgzW-1" vertex="1">
            <mxGeometry x="660" y="376" width="20" height="20" as="geometry" />
          </mxCell>
        </UserObject>
      </root>
    </mxGraphModel>
  </diagram>
  <diagram id="4onWYmvAsdt8Dk0VI_Lm" name="Information Elements/Base System Logical Module/Tenancy/MediaMetadata">
    <mxGraphModel dx="1388" dy="534" grid="1" gridSize="10" guides="1" tooltips="1" connect="1" arrows="1" fold="1" page="1" pageScale="1" pageWidth="827" pageHeight="1169" math="0" shadow="0">
      <root>
        <mxCell id="qBQhmDbqvRWv7KCLBkvx-0" />
        <mxCell id="Y0gm05LBfEPJ_tzlciNS-0" value="Context/Legend" parent="qBQhmDbqvRWv7KCLBkvx-0" />
        <mxCell id="Y0gm05LBfEPJ_tzlciNS-1" value="" style="rounded=0;whiteSpace=wrap;html=1;fontSize=10;align=left;container=1;collapsible=0;fontColor=#B3B3B3;strokeColor=#B3B3B3;" parent="Y0gm05LBfEPJ_tzlciNS-0" vertex="1">
          <mxGeometry x="440" y="180" width="240" height="50" as="geometry" />
        </mxCell>
        <mxCell id="Y0gm05LBfEPJ_tzlciNS-2" value="" style="whiteSpace=wrap;html=1;aspect=fixed;fillColor=none;strokeColor=#82b366;fontSize=10;align=left;fontStyle=2;strokeWidth=2;" parent="Y0gm05LBfEPJ_tzlciNS-1" vertex="1">
          <mxGeometry x="13.294460641399398" y="16.666666666666668" width="8.333333333333334" height="8.333333333333334" as="geometry" />
        </mxCell>
        <mxCell id="Y0gm05LBfEPJ_tzlciNS-3" value="" style="whiteSpace=wrap;html=1;aspect=fixed;fillColor=none;strokeColor=#d6b656;fontSize=10;align=left;fontStyle=2;strokeWidth=2;" parent="Y0gm05LBfEPJ_tzlciNS-1" vertex="1">
          <mxGeometry x="13.294460641399398" y="28" width="8.333333333333334" height="8.333333333333334" as="geometry" />
        </mxCell>
        <mxCell id="Y0gm05LBfEPJ_tzlciNS-4" value="" style="whiteSpace=wrap;html=1;aspect=fixed;fillColor=none;strokeColor=#6c8ebf;fontSize=10;align=left;fontStyle=2;strokeWidth=2;" parent="Y0gm05LBfEPJ_tzlciNS-1" vertex="1">
          <mxGeometry x="13.294460641399398" y="39.333333333333336" width="8.333333333333334" height="8.333333333333334" as="geometry" />
        </mxCell>
        <mxCell id="Y0gm05LBfEPJ_tzlciNS-5" value="Internal, System (underlying optional Tenants)&amp;nbsp;" style="text;html=1;strokeColor=none;fillColor=none;align=left;verticalAlign=middle;whiteSpace=wrap;rounded=0;fontSize=10;fontStyle=2;fontColor=#B3B3B3;" parent="Y0gm05LBfEPJ_tzlciNS-1" vertex="1">
          <mxGeometry x="26.5945189504373" y="16.666666666666668" width="213.40548104956264" height="8.333333333333334" as="geometry" />
        </mxCell>
        <mxCell id="Y0gm05LBfEPJ_tzlciNS-6" value="Internal, (optionally) Tenanted" style="text;html=1;strokeColor=none;fillColor=none;align=left;verticalAlign=middle;whiteSpace=wrap;rounded=0;fontSize=10;fontStyle=2;fontColor=#B3B3B3;" parent="Y0gm05LBfEPJ_tzlciNS-1" vertex="1">
          <mxGeometry x="26.59" y="30" width="213.41" height="6.33" as="geometry" />
        </mxCell>
        <mxCell id="Y0gm05LBfEPJ_tzlciNS-7" value="External, Versioned Contracts/Msgs" style="text;html=1;strokeColor=none;fillColor=none;align=left;verticalAlign=middle;whiteSpace=wrap;rounded=0;fontSize=10;fontStyle=2;fontColor=#B3B3B3;" parent="Y0gm05LBfEPJ_tzlciNS-1" vertex="1">
          <mxGeometry x="26.5945189504373" y="39.333333333333336" width="213.40548104956264" height="8.333333333333334" as="geometry" />
        </mxCell>
        <mxCell id="Y0gm05LBfEPJ_tzlciNS-8" value="Legend" style="text;html=1;strokeColor=none;fillColor=none;align=center;verticalAlign=middle;whiteSpace=wrap;rounded=0;fontSize=10;fontStyle=5;fontColor=#B3B3B3;" parent="Y0gm05LBfEPJ_tzlciNS-1" vertex="1">
          <mxGeometry x="26.588921282798815" width="159.53352769679296" height="16.666666666666668" as="geometry" />
        </mxCell>
        <mxCell id="ce7vMgrHxk4sV489viI9-13" value="Diagram/States" style="" parent="qBQhmDbqvRWv7KCLBkvx-0" />
        <mxCell id="ce7vMgrHxk4sV489viI9-0" value="Default StateSet" style="html=1;strokeColor=#003366;fillColor=#E6E6E6;fontSize=12;fontColor=#000000;strokeWidth=1;fontStyle=1;fontFamily=Courier New;" parent="ce7vMgrHxk4sV489viI9-13" vertex="1">
          <mxGeometry x="120" y="680" width="150" height="20" as="geometry" />
        </mxCell>
        <mxCell id="ce7vMgrHxk4sV489viI9-1" value="Draft" style="html=1;strokeColor=#003366;fillColor=none;fontSize=12;fontColor=#000000;strokeWidth=1;fontFamily=Courier New;" parent="ce7vMgrHxk4sV489viI9-13" vertex="1">
          <mxGeometry x="280" y="680" width="80" height="20" as="geometry" />
        </mxCell>
        <mxCell id="ce7vMgrHxk4sV489viI9-3" value="For Review" style="html=1;strokeColor=#003366;fillColor=none;fontSize=12;fontColor=#000000;strokeWidth=1;fontFamily=Courier New;" parent="ce7vMgrHxk4sV489viI9-13" vertex="1">
          <mxGeometry x="370" y="680" width="80" height="20" as="geometry" />
        </mxCell>
        <mxCell id="ce7vMgrHxk4sV489viI9-4" value="Cancelled" style="html=1;strokeColor=#003366;fillColor=none;fontSize=12;fontColor=#000000;strokeWidth=1;fontFamily=Courier New;" parent="ce7vMgrHxk4sV489viI9-13" vertex="1">
          <mxGeometry x="460" y="680" width="70" height="20" as="geometry" />
        </mxCell>
        <mxCell id="ce7vMgrHxk4sV489viI9-6" value="Approved" style="html=1;strokeColor=#003366;fillColor=none;fontSize=12;fontColor=#000000;strokeWidth=1;fontFamily=Courier New;" parent="ce7vMgrHxk4sV489viI9-13" vertex="1">
          <mxGeometry x="540" y="680" width="60" height="20" as="geometry" />
        </mxCell>
        <mxCell id="ce7vMgrHxk4sV489viI9-8" value="Released" style="html=1;strokeColor=#003366;fillColor=none;fontSize=12;fontColor=#000000;strokeWidth=1;fontFamily=Courier New;" parent="ce7vMgrHxk4sV489viI9-13" vertex="1">
          <mxGeometry x="610" y="680" width="60" height="20" as="geometry" />
        </mxCell>
        <mxCell id="ce7vMgrHxk4sV489viI9-9" value="Superceded" style="html=1;strokeColor=#003366;fillColor=none;fontSize=12;fontColor=#000000;strokeWidth=1;fontFamily=Courier New;" parent="ce7vMgrHxk4sV489viI9-13" vertex="1">
          <mxGeometry x="460" y="710" width="70" height="20" as="geometry" />
        </mxCell>
        <mxCell id="ce7vMgrHxk4sV489viI9-10" value="Retired" style="html=1;strokeColor=#003366;fillColor=none;fontSize=12;fontColor=#000000;strokeWidth=1;fontFamily=Courier New;" parent="ce7vMgrHxk4sV489viI9-13" vertex="1">
          <mxGeometry x="540" y="710" width="60" height="20" as="geometry" />
        </mxCell>
        <mxCell id="ce7vMgrHxk4sV489viI9-31" value="Endorsed" style="html=1;strokeColor=#003366;fillColor=none;fontSize=12;fontColor=#000000;strokeWidth=1;fontFamily=Courier New;" parent="ce7vMgrHxk4sV489viI9-13" vertex="1">
          <mxGeometry x="280" y="710" width="80" height="20" as="geometry" />
        </mxCell>
        <mxCell id="ce7vMgrHxk4sV489viI9-34" value="Revoked" style="html=1;strokeColor=#003366;fillColor=none;fontSize=12;fontColor=#000000;strokeWidth=1;fontFamily=Courier New;" parent="ce7vMgrHxk4sV489viI9-13" vertex="1">
          <mxGeometry x="370" y="710" width="80" height="20" as="geometry" />
        </mxCell>
        <mxCell id="ce7vMgrHxk4sV489viI9-38" style="edgeStyle=orthogonalEdgeStyle;rounded=1;orthogonalLoop=1;jettySize=auto;html=1;startArrow=none;startFill=0;endArrow=ERzeroToMany;endFill=1;fontSize=12;fontColor=#000000;" parent="ce7vMgrHxk4sV489viI9-13" source="ce7vMgrHxk4sV489viI9-37" target="ce7vMgrHxk4sV489viI9-36" edge="1">
          <mxGeometry relative="1" as="geometry" />
        </mxCell>
        <mxCell id="ce7vMgrHxk4sV489viI9-40" value="&lt;font style=&quot;font-size: 12px;&quot;&gt;Contributor Assignment&lt;/font&gt;" style="html=1;strokeColor=#003366;fillColor=#E6E6E6;fontSize=12;fontColor=#000000;strokeWidth=1;fontStyle=1;fontFamily=Courier New;" parent="ce7vMgrHxk4sV489viI9-13" vertex="1">
          <mxGeometry x="120" y="650" width="150" height="20" as="geometry" />
        </mxCell>
        <mxCell id="ce7vMgrHxk4sV489viI9-41" value="Accountable" style="html=1;strokeColor=#003366;fillColor=none;fontSize=12;fontColor=#000000;strokeWidth=1;fontFamily=Courier New;" parent="ce7vMgrHxk4sV489viI9-13" vertex="1">
          <mxGeometry x="280" y="650" width="80" height="20" as="geometry" />
        </mxCell>
        <mxCell id="ce7vMgrHxk4sV489viI9-42" value="Collaborator" style="html=1;strokeColor=#003366;fillColor=none;fontSize=12;fontColor=#000000;strokeWidth=1;fontFamily=Courier New;" parent="ce7vMgrHxk4sV489viI9-13" vertex="1">
          <mxGeometry x="370" y="650" width="80" height="20" as="geometry" />
        </mxCell>
        <mxCell id="ce7vMgrHxk4sV489viI9-43" value="Reviewer" style="html=1;strokeColor=#003366;fillColor=none;fontSize=12;fontColor=#000000;strokeWidth=1;fontFamily=Courier New;" parent="ce7vMgrHxk4sV489viI9-13" vertex="1">
          <mxGeometry x="460" y="650" width="70" height="20" as="geometry" />
        </mxCell>
        <mxCell id="ce7vMgrHxk4sV489viI9-44" value="Endorser" style="html=1;strokeColor=#003366;fillColor=none;fontSize=12;fontColor=#000000;strokeWidth=1;fontFamily=Courier New;" parent="ce7vMgrHxk4sV489viI9-13" vertex="1">
          <mxGeometry x="610" y="650" width="60" height="20" as="geometry" />
        </mxCell>
        <mxCell id="ce7vMgrHxk4sV489viI9-45" value="Approver" style="html=1;strokeColor=#003366;fillColor=none;fontSize=12;fontColor=#000000;strokeWidth=1;fontFamily=Courier New;" parent="ce7vMgrHxk4sV489viI9-13" vertex="1">
          <mxGeometry x="540" y="650" width="60" height="20" as="geometry" />
        </mxCell>
        <mxCell id="qBQhmDbqvRWv7KCLBkvx-3" value="Diagram/ERD" style="" parent="qBQhmDbqvRWv7KCLBkvx-0" />
        <UserObject label="Data Markings" link="https://protectivesecurity.govt.nz/information-security/classification-system-and-handling-requirements/classification-system/endorsements/" id="RTCKTS9UEmPlIc92nMxw-6">
          <mxCell style="rounded=1;whiteSpace=wrap;html=1;strokeColor=#999999;strokeWidth=1;fillColor=none;dashed=1;verticalAlign=top;align=left;spacingLeft=4;spacing=0;spacingTop=-5;fontColor=#808080;arcSize=16;absoluteArcSize=1;collapsible=0;container=1;recursiveResize=0;fontSize=10;" parent="qBQhmDbqvRWv7KCLBkvx-3" vertex="1">
            <mxGeometry x="450" y="240" width="220" height="140" as="geometry" />
          </mxCell>
        </UserObject>
        <mxCell id="RTCKTS9UEmPlIc92nMxw-3" value="[T]&lt;br style=&quot;font-size: 12px&quot;&gt;Instruction" style="html=1;strokeColor=#d6b656;fillColor=none;fontSize=12;strokeWidth=3;" parent="RTCKTS9UEmPlIc92nMxw-6" vertex="1">
          <mxGeometry x="10" y="20" width="80" height="40" as="geometry" />
        </mxCell>
        <mxCell id="RTCKTS9UEmPlIc92nMxw-15" style="edgeStyle=orthogonalEdgeStyle;rounded=1;orthogonalLoop=1;jettySize=auto;html=1;entryX=0.5;entryY=1;entryDx=0;entryDy=0;startArrow=none;startFill=0;endArrow=ERoneToMany;endFill=0;fontColor=#808080;fontSize=12;" parent="RTCKTS9UEmPlIc92nMxw-6" source="RTCKTS9UEmPlIc92nMxw-11" target="RTCKTS9UEmPlIc92nMxw-12" edge="1">
          <mxGeometry relative="1" as="geometry">
            <Array as="points" />
          </mxGeometry>
        </mxCell>
        <mxCell id="RTCKTS9UEmPlIc92nMxw-11" value="[T]&lt;br style=&quot;font-size: 12px&quot;&gt;StateSet" style="html=1;strokeColor=#d6b656;fillColor=none;fontSize=12;strokeWidth=3;" parent="RTCKTS9UEmPlIc92nMxw-6" vertex="1">
          <mxGeometry x="110" y="90" width="80" height="40" as="geometry" />
        </mxCell>
        <mxCell id="RTCKTS9UEmPlIc92nMxw-12" value="[T]&lt;br style=&quot;font-size: 12px&quot;&gt;State" style="html=1;strokeColor=#d6b656;fillColor=none;fontSize=12;strokeWidth=3;" parent="RTCKTS9UEmPlIc92nMxw-6" vertex="1">
          <mxGeometry x="110" y="20" width="80" height="40" as="geometry" />
        </mxCell>
        <mxCell id="RTCKTS9UEmPlIc92nMxw-5" value="" style="endArrow=ERmandOne;endFill=0;endSize=6;html=1;fontSize=10;fontColor=#000000;exitX=0.25;exitY=0;exitDx=0;exitDy=0;startSize=6;edgeStyle=orthogonalEdgeStyle;entryX=0.377;entryY=1.046;entryDx=0;entryDy=0;jumpStyle=arc;rounded=1;sourcePerimeterSpacing=0;targetPerimeterSpacing=0;startArrow=ERmany;startFill=0;entryPerimeter=0;" parent="qBQhmDbqvRWv7KCLBkvx-3" source="iRnLESzU_TgJT0yW1j_E-7" target="RTCKTS9UEmPlIc92nMxw-3" edge="1">
          <mxGeometry width="160" relative="1" as="geometry">
            <mxPoint x="450" y="370.1034482758621" as="sourcePoint" />
            <mxPoint x="410" y="290.1034482758621" as="targetPoint" />
            <Array as="points" />
          </mxGeometry>
        </mxCell>
        <mxCell id="RTCKTS9UEmPlIc92nMxw-13" value="" style="endArrow=ERmandOne;endFill=0;endSize=6;html=1;fontSize=10;fontColor=#000000;exitX=0.5;exitY=0;exitDx=0;exitDy=0;startSize=6;edgeStyle=orthogonalEdgeStyle;entryX=0.5;entryY=1;entryDx=0;entryDy=0;jumpStyle=arc;rounded=1;sourcePerimeterSpacing=0;targetPerimeterSpacing=0;startArrow=ERmany;startFill=0;" parent="qBQhmDbqvRWv7KCLBkvx-3" source="iRnLESzU_TgJT0yW1j_E-7" target="RTCKTS9UEmPlIc92nMxw-11" edge="1">
          <mxGeometry width="160" relative="1" as="geometry">
            <mxPoint x="490" y="359.75862068965523" as="sourcePoint" />
            <mxPoint x="490" y="310.1034482758621" as="targetPoint" />
            <Array as="points" />
          </mxGeometry>
        </mxCell>
        <mxCell id="RTCKTS9UEmPlIc92nMxw-14" value="" style="endArrow=ERmandOne;endFill=0;endSize=6;html=1;fontSize=10;fontColor=#000000;exitX=0.818;exitY=0.015;exitDx=0;exitDy=0;startSize=6;edgeStyle=orthogonalEdgeStyle;jumpStyle=arc;rounded=1;sourcePerimeterSpacing=0;targetPerimeterSpacing=0;startArrow=ERmany;startFill=0;exitPerimeter=0;entryX=1;entryY=0.5;entryDx=0;entryDy=0;" parent="qBQhmDbqvRWv7KCLBkvx-3" source="iRnLESzU_TgJT0yW1j_E-7" target="RTCKTS9UEmPlIc92nMxw-12" edge="1">
          <mxGeometry width="160" relative="1" as="geometry">
            <mxPoint x="510.20000000000005" y="360.20000000000005" as="sourcePoint" />
            <mxPoint x="770" y="310" as="targetPoint" />
            <Array as="points">
              <mxPoint x="525" y="418" />
              <mxPoint x="525" y="400" />
              <mxPoint x="660" y="400" />
              <mxPoint x="660" y="280" />
            </Array>
          </mxGeometry>
        </mxCell>
        <mxCell id="iRnLESzU_TgJT0yW1j_E-6" value="Media" style="rounded=1;whiteSpace=wrap;html=1;strokeColor=#999999;strokeWidth=1;fillColor=none;dashed=1;verticalAlign=top;align=left;spacingLeft=14;spacing=0;spacingTop=-5;fontColor=#808080;arcSize=16;absoluteArcSize=1;collapsible=0;container=1;recursiveResize=0;fontSize=10;" parent="qBQhmDbqvRWv7KCLBkvx-3" vertex="1">
          <mxGeometry x="330" y="467.5" width="340" height="162.5" as="geometry" />
        </mxCell>
        <mxCell id="iRnLESzU_TgJT0yW1j_E-8" style="edgeStyle=orthogonalEdgeStyle;rounded=1;orthogonalLoop=1;jettySize=auto;html=1;entryX=0;entryY=0.5;entryDx=0;entryDy=0;endArrow=ERzeroToMany;endFill=1;strokeColor=#000000;fontFamily=Helvetica;fontSize=12;fontColor=#000000;startArrow=ERzeroToOne;startFill=1;" parent="iRnLESzU_TgJT0yW1j_E-6" source="iRnLESzU_TgJT0yW1j_E-9" target="iRnLESzU_TgJT0yW1j_E-7" edge="1">
          <mxGeometry relative="1" as="geometry" />
        </mxCell>
        <mxCell id="iRnLESzU_TgJT0yW1j_E-9" value="[T]&lt;br style=&quot;font-size: 12px&quot;&gt;MediaCollection" style="html=1;strokeColor=#d6b656;fillColor=none;fontSize=12;strokeWidth=3;" parent="iRnLESzU_TgJT0yW1j_E-6" vertex="1">
          <mxGeometry x="30" y="-50" width="80" height="40" as="geometry" />
        </mxCell>
        <mxCell id="iRnLESzU_TgJT0yW1j_E-7" value="[T]&lt;br style=&quot;font-size: 12px&quot;&gt;MediaMetadata" style="html=1;strokeColor=#d6b656;fillColor=none;fontSize=12;strokeWidth=3;" parent="iRnLESzU_TgJT0yW1j_E-6" vertex="1">
          <mxGeometry x="140" y="-50" width="80" height="40" as="geometry" />
        </mxCell>
        <mxCell id="RTCKTS9UEmPlIc92nMxw-17" value="nestable" style="endArrow=ERzeroToMany;endFill=1;endSize=6;html=1;fontSize=8;fontColor=#B3B3B3;edgeStyle=orthogonalEdgeStyle;jumpStyle=arc;rounded=1;entryX=1;entryY=0.75;entryDx=0;entryDy=0;sourcePerimeterSpacing=0;targetPerimeterSpacing=0;startSize=6;startArrow=ERzeroToOne;startFill=1;exitX=0.75;exitY=1;exitDx=0;exitDy=0;" parent="iRnLESzU_TgJT0yW1j_E-6" source="iRnLESzU_TgJT0yW1j_E-9" target="iRnLESzU_TgJT0yW1j_E-9" edge="1">
          <mxGeometry x="0.2734" width="160" relative="1" as="geometry">
            <mxPoint x="-179.8571428571429" y="210" as="sourcePoint" />
            <mxPoint x="-199.8571428571429" y="200.28571428571433" as="targetPoint" />
            <Array as="points">
              <mxPoint x="90" y="10" />
              <mxPoint x="120" y="10" />
              <mxPoint x="120" y="-20" />
            </Array>
            <mxPoint as="offset" />
          </mxGeometry>
        </mxCell>
        <mxCell id="STAIldiOt4TXbqNFX8Jr-0" value="[T]&lt;br style=&quot;font-size: 12px&quot;&gt;Copyright &lt;br style=&quot;font-size: 12px&quot;&gt;Statements" style="html=1;strokeColor=#d6b656;fillColor=none;fontSize=12;strokeWidth=3;" parent="iRnLESzU_TgJT0yW1j_E-6" vertex="1">
          <mxGeometry x="240" y="52.5" width="80" height="40" as="geometry" />
        </mxCell>
        <mxCell id="99abcu__weol7uSRg6Gs-2" value="prev&lt;br&gt;versions" style="endArrow=ERzeroToMany;endFill=1;endSize=6;html=1;fontSize=8;fontColor=#B3B3B3;edgeStyle=orthogonalEdgeStyle;jumpStyle=arc;rounded=1;sourcePerimeterSpacing=0;targetPerimeterSpacing=0;startSize=6;startArrow=ERzeroToOne;startFill=1;exitX=0.75;exitY=1;exitDx=0;exitDy=0;entryX=1;entryY=0.75;entryDx=0;entryDy=0;" parent="iRnLESzU_TgJT0yW1j_E-6" source="iRnLESzU_TgJT0yW1j_E-7" target="iRnLESzU_TgJT0yW1j_E-7" edge="1">
          <mxGeometry x="0.2734" width="160" relative="1" as="geometry">
            <mxPoint x="350" y="210" as="sourcePoint" />
            <mxPoint x="270" y="130" as="targetPoint" />
            <Array as="points">
              <mxPoint x="190" y="10" />
              <mxPoint x="230" y="10" />
              <mxPoint x="230" y="-20" />
            </Array>
            <mxPoint as="offset" />
          </mxGeometry>
        </mxCell>
        <mxCell id="99abcu__weol7uSRg6Gs-18" style="edgeStyle=orthogonalEdgeStyle;rounded=1;orthogonalLoop=1;jettySize=auto;html=1;entryX=0.5;entryY=0;entryDx=0;entryDy=0;startArrow=none;startFill=0;endArrow=ERmandOne;endFill=0;exitX=0.5;exitY=1;exitDx=0;exitDy=0;" parent="iRnLESzU_TgJT0yW1j_E-6" source="iRnLESzU_TgJT0yW1j_E-7" target="STAIldiOt4TXbqNFX8Jr-0" edge="1">
          <mxGeometry relative="1" as="geometry">
            <mxPoint x="200.20689655172418" y="-19.72413793103442" as="sourcePoint" />
            <mxPoint x="229.8620689655172" y="-19.72413793103442" as="targetPoint" />
            <Array as="points">
              <mxPoint x="170" y="20" />
              <mxPoint x="280" y="20" />
            </Array>
          </mxGeometry>
        </mxCell>
        <mxCell id="99abcu__weol7uSRg6Gs-19" style="edgeStyle=none;rounded=0;orthogonalLoop=1;jettySize=auto;html=1;startArrow=none;startFill=0;endArrow=ERzeroToOne;endFill=1;strokeColor=#B3B3B3;fontSize=12;fontColor=#CCCCCC;exitX=0.5;exitY=1;exitDx=0;exitDy=0;" parent="iRnLESzU_TgJT0yW1j_E-6" source="STAIldiOt4TXbqNFX8Jr-0" target="99abcu__weol7uSRg6Gs-20" edge="1">
          <mxGeometry relative="1" as="geometry">
            <mxPoint x="490" y="282.5" as="sourcePoint" />
          </mxGeometry>
        </mxCell>
        <mxCell id="99abcu__weol7uSRg6Gs-20" value="[System]&lt;br style=&quot;font-size: 12px;&quot;&gt;Copyright&lt;br style=&quot;font-size: 12px;&quot;&gt;Statements" style="html=1;strokeColor=#82b366;fillColor=none;fontSize=12;strokeWidth=3;" parent="iRnLESzU_TgJT0yW1j_E-6" vertex="1">
          <mxGeometry x="239.99662597656248" y="112.5" width="80" height="40" as="geometry" />
        </mxCell>
        <mxCell id="99abcu__weol7uSRg6Gs-21" value="[T]&lt;br style=&quot;font-size: 12px&quot;&gt;MediaMetadata&lt;br style=&quot;font-size: 12px&quot;&gt;Tags" style="html=1;strokeColor=#d6b656;fillColor=none;fontSize=12;strokeWidth=3;" parent="iRnLESzU_TgJT0yW1j_E-6" vertex="1">
          <mxGeometry x="140" y="52.5" width="80" height="40" as="geometry" />
        </mxCell>
        <mxCell id="99abcu__weol7uSRg6Gs-22" value="" style="endArrow=ERzeroToMany;endFill=1;endSize=6;html=1;fontSize=10;fontColor=#000000;startSize=6;jumpStyle=arc;rounded=1;sourcePerimeterSpacing=0;targetPerimeterSpacing=0;startArrow=ERzeroToMany;startFill=1;exitX=0.25;exitY=1;exitDx=0;exitDy=0;entryX=0.25;entryY=0;entryDx=0;entryDy=0;" parent="iRnLESzU_TgJT0yW1j_E-6" source="iRnLESzU_TgJT0yW1j_E-7" target="99abcu__weol7uSRg6Gs-21" edge="1">
          <mxGeometry width="160" relative="1" as="geometry">
            <mxPoint x="141" y="-10" as="sourcePoint" />
            <mxPoint x="140.20689655172418" y="-90.0689655172414" as="targetPoint" />
          </mxGeometry>
        </mxCell>
        <mxCell id="ce7vMgrHxk4sV489viI9-39" style="edgeStyle=orthogonalEdgeStyle;rounded=1;orthogonalLoop=1;jettySize=auto;html=1;entryX=0;entryY=1;entryDx=0;entryDy=0;startArrow=ERzeroToMany;startFill=1;endArrow=none;endFill=0;fontSize=9;fontColor=#000000;" parent="iRnLESzU_TgJT0yW1j_E-6" source="ce7vMgrHxk4sV489viI9-36" target="iRnLESzU_TgJT0yW1j_E-7" edge="1">
          <mxGeometry relative="1" as="geometry">
            <mxPoint x="130" y="-10" as="targetPoint" />
            <Array as="points">
              <mxPoint x="40" y="33" />
              <mxPoint x="130" y="33" />
              <mxPoint x="130" y="-10" />
            </Array>
          </mxGeometry>
        </mxCell>
        <mxCell id="ce7vMgrHxk4sV489viI9-36" value="[T]&lt;br style=&quot;font-size: 12px&quot;&gt;Contributor&lt;br style=&quot;font-size: 12px&quot;&gt;Assignment" style="html=1;strokeColor=#d6b656;fillColor=none;fontSize=12;strokeWidth=3;" parent="iRnLESzU_TgJT0yW1j_E-6" vertex="1">
          <mxGeometry x="0.1666259765625" y="52.5" width="80" height="40" as="geometry" />
        </mxCell>
        <mxCell id="iRnLESzU_TgJT0yW1j_E-0" style="edgeStyle=none;rounded=1;orthogonalLoop=1;jettySize=auto;html=1;entryX=0;entryY=0.5;entryDx=0;entryDy=0;startArrow=ERzeroToOne;startFill=1;endArrow=ERzeroToMany;endFill=1;strokeColor=#000000;fontFamily=Helvetica;fontSize=12;fontColor=#000000;exitX=1;exitY=0.25;exitDx=0;exitDy=0;" parent="qBQhmDbqvRWv7KCLBkvx-3" source="R6wUQSBTLw-RcR-q29-Q-2" target="iRnLESzU_TgJT0yW1j_E-9" edge="1">
          <mxGeometry relative="1" as="geometry" />
        </mxCell>
        <mxCell id="iRnLESzU_TgJT0yW1j_E-3" value="" style="endArrow=ERmandOne;endFill=0;endSize=6;html=1;fontSize=10;fontColor=#000000;exitX=0;exitY=0.25;exitDx=0;exitDy=0;startSize=6;edgeStyle=orthogonalEdgeStyle;entryX=1;entryY=0.5;entryDx=0;entryDy=0;jumpStyle=arc;rounded=1;sourcePerimeterSpacing=0;targetPerimeterSpacing=0;startArrow=ERmany;startFill=0;" parent="qBQhmDbqvRWv7KCLBkvx-3" source="iRnLESzU_TgJT0yW1j_E-7" target="iRnLESzU_TgJT0yW1j_E-21" edge="1">
          <mxGeometry width="160" relative="1" as="geometry">
            <mxPoint x="280" y="482" as="sourcePoint" />
            <mxPoint x="320" y="482" as="targetPoint" />
            <Array as="points" />
          </mxGeometry>
        </mxCell>
        <mxCell id="iRnLESzU_TgJT0yW1j_E-4" value="" style="endArrow=ERmandOne;endFill=0;endSize=6;html=1;fontSize=10;fontColor=#000000;startSize=6;entryX=1;entryY=1;entryDx=0;entryDy=0;jumpStyle=arc;rounded=1;sourcePerimeterSpacing=0;targetPerimeterSpacing=0;startArrow=ERzeroToMany;startFill=1;edgeStyle=elbowEdgeStyle;exitX=0.095;exitY=1.059;exitDx=0;exitDy=0;exitPerimeter=0;" parent="qBQhmDbqvRWv7KCLBkvx-3" source="iRnLESzU_TgJT0yW1j_E-7" target="R6wUQSBTLw-RcR-q29-Q-2" edge="1">
          <mxGeometry width="160" relative="1" as="geometry">
            <mxPoint x="410" y="469.5" as="sourcePoint" />
            <mxPoint x="410" y="509.5" as="targetPoint" />
            <Array as="points">
              <mxPoint x="350" y="487" />
            </Array>
          </mxGeometry>
        </mxCell>
        <mxCell id="iRnLESzU_TgJT0yW1j_E-5" value="" style="endArrow=ERmandOne;endFill=0;endSize=6;html=1;fontSize=10;fontColor=#000000;startSize=6;jumpStyle=arc;rounded=1;entryX=0;entryY=0.75;entryDx=0;entryDy=0;sourcePerimeterSpacing=0;targetPerimeterSpacing=0;startArrow=ERmany;startFill=0;exitX=0.75;exitY=0;exitDx=0;exitDy=0;" parent="qBQhmDbqvRWv7KCLBkvx-3" source="R6wUQSBTLw-RcR-q29-Q-2" target="iRnLESzU_TgJT0yW1j_E-21" edge="1">
          <mxGeometry width="160" relative="1" as="geometry">
            <mxPoint x="310" y="393" as="sourcePoint" />
            <mxPoint x="350" y="462" as="targetPoint" />
            <Array as="points">
              <mxPoint x="290" y="290" />
            </Array>
          </mxGeometry>
        </mxCell>
        <mxCell id="iRnLESzU_TgJT0yW1j_E-20" value="Data Classification" style="rounded=1;whiteSpace=wrap;html=1;strokeColor=#999999;strokeWidth=1;fillColor=none;dashed=1;verticalAlign=top;align=left;spacingLeft=4;spacing=0;spacingTop=-5;fontColor=#808080;arcSize=16;absoluteArcSize=1;collapsible=0;container=1;recursiveResize=0;fontSize=10;" parent="qBQhmDbqvRWv7KCLBkvx-3" vertex="1">
          <mxGeometry x="310" y="240" width="100" height="69" as="geometry" />
        </mxCell>
        <mxCell id="iRnLESzU_TgJT0yW1j_E-21" value="[T]&lt;br style=&quot;font-size: 12px&quot;&gt;Data&lt;br&gt;Classification" style="html=1;strokeColor=#d6b656;fillColor=none;fontSize=12;strokeWidth=3;" parent="iRnLESzU_TgJT0yW1j_E-20" vertex="1">
          <mxGeometry x="10" y="20" width="80" height="40" as="geometry" />
        </mxCell>
        <mxCell id="vdJ5EKJgqG3TBKY8LfZ--5" style="rounded=1;orthogonalLoop=1;jettySize=auto;html=1;startArrow=none;startFill=0;endArrow=ERmandOne;endFill=0;exitX=1;exitY=0.25;exitDx=0;exitDy=0;entryX=0;entryY=0.25;entryDx=0;entryDy=0;fontSize=12;" parent="qBQhmDbqvRWv7KCLBkvx-3" source="iRnLESzU_TgJT0yW1j_E-25" target="iRnLESzU_TgJT0yW1j_E-21" edge="1">
          <mxGeometry relative="1" as="geometry" />
        </mxCell>
        <mxCell id="iRnLESzU_TgJT0yW1j_E-24" value="&lt;font style=&quot;font-size: 8px&quot;&gt;Org Member Profile&lt;/font&gt;" style="rounded=1;whiteSpace=wrap;html=1;strokeColor=#999999;strokeWidth=1;fillColor=none;dashed=1;verticalAlign=top;align=left;spacingLeft=4;spacing=0;spacingTop=-5;fontColor=#808080;arcSize=16;absoluteArcSize=1;collapsible=0;container=1;recursiveResize=0;fontSize=10;" parent="qBQhmDbqvRWv7KCLBkvx-3" vertex="1">
          <mxGeometry x="120" y="240" width="100" height="70" as="geometry" />
        </mxCell>
        <mxCell id="iRnLESzU_TgJT0yW1j_E-25" value="[T]&lt;br style=&quot;font-size: 12px&quot;&gt;Membership&lt;br style=&quot;font-size: 12px&quot;&gt;Profile" style="html=1;strokeColor=#d6b656;fillColor=none;fontSize=12;strokeWidth=3;" parent="iRnLESzU_TgJT0yW1j_E-24" vertex="1">
          <mxGeometry x="10" y="20" width="80" height="40" as="geometry" />
        </mxCell>
        <mxCell id="R6wUQSBTLw-RcR-q29-Q-0" value="Tenancy Groups" style="rounded=1;whiteSpace=wrap;html=1;strokeColor=#999999;strokeWidth=1;fillColor=none;dashed=1;verticalAlign=top;align=left;spacingLeft=4;spacing=0;spacingTop=-5;fontColor=#808080;arcSize=16;absoluteArcSize=1;collapsible=0;container=1;recursiveResize=0;fontSize=10;" parent="qBQhmDbqvRWv7KCLBkvx-3" vertex="1">
          <mxGeometry x="140" y="397.5" width="100" height="90" as="geometry" />
        </mxCell>
        <mxCell id="R6wUQSBTLw-RcR-q29-Q-2" value="[T]&lt;br style=&quot;font-size: 12px&quot;&gt;Group" style="html=1;strokeColor=#d6b656;fillColor=none;fontSize=12;strokeWidth=3;" parent="R6wUQSBTLw-RcR-q29-Q-0" vertex="1">
          <mxGeometry x="10" y="20" width="80" height="40" as="geometry" />
        </mxCell>
        <mxCell id="R6wUQSBTLw-RcR-q29-Q-3" value="has&amp;nbsp;&lt;br style=&quot;font-size: 8px;&quot;&gt;children" style="endArrow=ERzeroToMany;endFill=1;endSize=6;html=1;fontSize=8;fontColor=#B3B3B3;edgeStyle=orthogonalEdgeStyle;jumpStyle=arc;rounded=1;entryX=0;entryY=0.75;entryDx=0;entryDy=0;sourcePerimeterSpacing=0;targetPerimeterSpacing=0;startSize=6;startArrow=ERzeroToOne;startFill=1;exitX=0.75;exitY=1;exitDx=0;exitDy=0;" parent="R6wUQSBTLw-RcR-q29-Q-0" source="R6wUQSBTLw-RcR-q29-Q-2" target="R6wUQSBTLw-RcR-q29-Q-2" edge="1">
          <mxGeometry x="-0.3333" width="160" relative="1" as="geometry">
            <mxPoint x="30" y="50" as="sourcePoint" />
            <mxPoint x="70" y="259" as="targetPoint" />
            <Array as="points">
              <mxPoint x="70" y="80" />
              <mxPoint x="-10" y="80" />
              <mxPoint x="-10" y="50" />
            </Array>
            <mxPoint as="offset" />
          </mxGeometry>
        </mxCell>
        <mxCell id="vdJ5EKJgqG3TBKY8LfZ--0" style="edgeStyle=orthogonalEdgeStyle;rounded=1;orthogonalLoop=1;jettySize=auto;html=1;entryX=0.5;entryY=1;entryDx=0;entryDy=0;startArrow=none;startFill=0;endArrow=ERzeroToMany;endFill=1;" parent="qBQhmDbqvRWv7KCLBkvx-3" source="R6wUQSBTLw-RcR-q29-Q-2" target="iRnLESzU_TgJT0yW1j_E-25" edge="1">
          <mxGeometry relative="1" as="geometry" />
        </mxCell>
        <mxCell id="vdJ5EKJgqG3TBKY8LfZ--6" style="edgeStyle=orthogonalEdgeStyle;rounded=1;orthogonalLoop=1;jettySize=auto;html=1;entryX=0.5;entryY=1;entryDx=0;entryDy=0;startArrow=none;startFill=0;endArrow=ERmandOne;endFill=0;" parent="qBQhmDbqvRWv7KCLBkvx-3" source="iRnLESzU_TgJT0yW1j_E-9" target="iRnLESzU_TgJT0yW1j_E-21" edge="1">
          <mxGeometry relative="1" as="geometry" />
        </mxCell>
        <mxCell id="vdJ5EKJgqG3TBKY8LfZ--7" value="[T]&lt;br style=&quot;font-size: 12px&quot;&gt;Resource &lt;br&gt;Terms" style="html=1;strokeColor=#d6b656;fillColor=none;fontSize=12;strokeWidth=3;" parent="qBQhmDbqvRWv7KCLBkvx-3" vertex="1">
          <mxGeometry x="580" y="417.5" width="80" height="40" as="geometry" />
        </mxCell>
        <mxCell id="ce7vMgrHxk4sV489viI9-37" value="[T]&lt;br style=&quot;font-size: 12px&quot;&gt;Tenant&lt;br style=&quot;font-size: 12px&quot;&gt;Member" style="html=1;strokeColor=#d6b656;fillColor=none;fontSize=12;strokeWidth=3;" parent="qBQhmDbqvRWv7KCLBkvx-3" vertex="1">
          <mxGeometry x="230.1666259765625" y="520" width="80" height="40" as="geometry" />
        </mxCell>
        <mxCell id="vdJ5EKJgqG3TBKY8LfZ--8" style="edgeStyle=orthogonalEdgeStyle;rounded=1;orthogonalLoop=1;jettySize=auto;html=1;entryX=0;entryY=0.5;entryDx=0;entryDy=0;startArrow=ERzeroToMany;startFill=1;endArrow=ERmandOne;endFill=0;exitX=1;exitY=0.5;exitDx=0;exitDy=0;fontSize=12;" parent="qBQhmDbqvRWv7KCLBkvx-3" source="iRnLESzU_TgJT0yW1j_E-7" target="vdJ5EKJgqG3TBKY8LfZ--7" edge="1">
          <mxGeometry relative="1" as="geometry" />
        </mxCell>
        <mxCell id="tSXg7iPM40WOx0EYDLie-0" value="Title/Diagram" parent="qBQhmDbqvRWv7KCLBkvx-0" />
        <mxCell id="tSXg7iPM40WOx0EYDLie-1" value="&lt;font style=&quot;font-size: 12px&quot;&gt;Diagram:&amp;nbsp; Information - Information Model Part - Base System Module -&lt;br style=&quot;font-size: 12px;&quot;&gt;Organisation Media Metadata Management Elements&lt;/font&gt;" style="text;strokeColor=none;fillColor=none;html=1;fontSize=12;fontStyle=2;verticalAlign=middle;align=left;shadow=0;glass=0;comic=0;opacity=30;fontColor=#808080;" parent="tSXg7iPM40WOx0EYDLie-0" vertex="1">
          <mxGeometry x="120" y="760" width="520" height="20" as="geometry" />
        </mxCell>
        <mxCell id="qBQhmDbqvRWv7KCLBkvx-2" value="Title/Page" style="" parent="qBQhmDbqvRWv7KCLBkvx-0" visible="0" />
        <mxCell id="i6nlKIVyMSSXmNZd6kWP-1" value="" style="group;fontSize=12;" parent="qBQhmDbqvRWv7KCLBkvx-2" vertex="1" connectable="0">
          <mxGeometry x="120" y="120" width="560" height="50" as="geometry" />
        </mxCell>
        <mxCell id="i6nlKIVyMSSXmNZd6kWP-2" value="&lt;font style=&quot;font-size: 12px&quot;&gt;Information -&amp;nbsp;Organisation Media MediaMetadata Management Elements&lt;/font&gt;" style="text;strokeColor=none;fillColor=none;html=1;fontSize=12;fontStyle=1;verticalAlign=middle;align=left;shadow=0;glass=0;comic=0;opacity=30;fontColor=#808080;" parent="i6nlKIVyMSSXmNZd6kWP-1" vertex="1">
          <mxGeometry width="550" height="40" as="geometry" />
        </mxCell>
        <mxCell id="i6nlKIVyMSSXmNZd6kWP-3" value="" style="line;strokeWidth=2;html=1;shadow=0;glass=0;comic=0;fillColor=none;fontSize=12;fontColor=#CCCCCC;labelBackgroundColor=none;strokeColor=#CCCCCC;" parent="i6nlKIVyMSSXmNZd6kWP-1" vertex="1">
          <mxGeometry y="35" width="560" height="10" as="geometry" />
        </mxCell>
        <mxCell id="qBQhmDbqvRWv7KCLBkvx-1" value="About" style="" parent="qBQhmDbqvRWv7KCLBkvx-0" />
        <UserObject label="" tooltip="ABOUT&#xa;&#xa;A Tenancy is for a separate Organisation, whether legal or not (eg: one legal org, or a Home).&#xa;&#xa;It is an unsolvable error to combine multiple different organisations in one application/tenancy, for multiple reasons, including it simply being difficult to have both organisations have admins, who can change roles of users in different organisations).&#xa;&#xa;Each Tenancy may have zero or more Members, defined here as a Member Profile.&#xa;&#xa;A Member Profile has a few core properties: &#39;Name&#39; as the person wants to be known within a specific Tenancy (a person can be known as Joseph S. in an office, Joe in a personal Tenancy, etc.) Each Member Profile has an arbitrary number of additional optional Properties. &#xa;&#xa;It is recommended that the User Interface allows a Principal to easily switch between the tenancies they belong to.&#xa;&#xa;It is also recommended to not make the mistake of embedding the Current Tenancy as a Security Token Claim value, but is instead cached either on the server (eg: in a Redis Cache), or round-tripped between Client and Server in a Mememto (ie, Cookie). Using Server side caching is preferable.&#xa;&#xa;I&#39;m of two minds whether Data Classification is a System value or is defined at the Tenancy..&#xa;&#xa;If designed at the System level, one can define a Tenancy as being capable of handling at best items up to a certain level (eg: IN-CONFIDENCE), and its members can be rated independently (such that some Members are only rated to view up to UNCLASSSIFIED and others rated to see IN-CONFIDENCE documents).If it is Tenancy specific, one loses the ability to specify that a Tenancy is rated to contain material up to only a specific level." id="yz5eLrjrhpSBRQ4vIcQq-0">
          <mxCell style="shape=image;html=1;verticalAlign=top;verticalLabelPosition=bottom;labelBackgroundColor=#ffffff;imageAspect=0;aspect=fixed;image=https://cdn1.iconfinder.com/data/icons/hawcons/32/699014-icon-28-information-128.png;shadow=0;dashed=0;fontFamily=Helvetica;fontSize=12;fontColor=#000000;align=center;strokeColor=#000000;fillColor=#505050;dashPattern=1 1;" parent="qBQhmDbqvRWv7KCLBkvx-1" vertex="1">
            <mxGeometry x="660" y="760" width="20" height="20" as="geometry" />
          </mxCell>
        </UserObject>
      </root>
    </mxGraphModel>
  </diagram>
  <diagram id="a9MqUg8Z-JvZY43gdZP_" name="Command">
    <mxGraphModel dx="1388" dy="534" grid="1" gridSize="10" guides="1" tooltips="1" connect="1" arrows="1" fold="1" page="1" pageScale="1" pageWidth="827" pageHeight="1169" math="0" shadow="0">
      <root>
        <mxCell id="KSBHCkZp8ORcdQP4AhJz-0" />
        <mxCell id="KSBHCkZp8ORcdQP4AhJz-1" parent="KSBHCkZp8ORcdQP4AhJz-0" />
        <mxCell id="KSBHCkZp8ORcdQP4AhJz-6" style="edgeStyle=orthogonalEdgeStyle;rounded=0;orthogonalLoop=1;jettySize=auto;html=1;endArrow=none;endFill=0;" edge="1" parent="KSBHCkZp8ORcdQP4AhJz-1" source="KSBHCkZp8ORcdQP4AhJz-2" target="KSBHCkZp8ORcdQP4AhJz-5">
          <mxGeometry relative="1" as="geometry" />
        </mxCell>
        <mxCell id="KSBHCkZp8ORcdQP4AhJz-7" style="edgeStyle=orthogonalEdgeStyle;rounded=0;orthogonalLoop=1;jettySize=auto;html=1;entryX=0;entryY=0.5;entryDx=0;entryDy=0;endArrow=ERmany;endFill=0;" edge="1" parent="KSBHCkZp8ORcdQP4AhJz-1" source="KSBHCkZp8ORcdQP4AhJz-2" target="KSBHCkZp8ORcdQP4AhJz-3">
          <mxGeometry relative="1" as="geometry" />
        </mxCell>
        <mxCell id="KSBHCkZp8ORcdQP4AhJz-11" style="edgeStyle=orthogonalEdgeStyle;rounded=0;orthogonalLoop=1;jettySize=auto;html=1;entryX=0.5;entryY=0;entryDx=0;entryDy=0;endArrow=ERmany;endFill=0;" edge="1" parent="KSBHCkZp8ORcdQP4AhJz-1" source="KSBHCkZp8ORcdQP4AhJz-2" target="KSBHCkZp8ORcdQP4AhJz-10">
          <mxGeometry relative="1" as="geometry" />
        </mxCell>
        <mxCell id="KSBHCkZp8ORcdQP4AhJz-21" style="edgeStyle=orthogonalEdgeStyle;rounded=0;orthogonalLoop=1;jettySize=auto;html=1;entryX=1;entryY=0.5;entryDx=0;entryDy=0;endArrow=ERmany;endFill=0;" edge="1" parent="KSBHCkZp8ORcdQP4AhJz-1" source="KSBHCkZp8ORcdQP4AhJz-2" target="KSBHCkZp8ORcdQP4AhJz-19">
          <mxGeometry relative="1" as="geometry" />
        </mxCell>
        <mxCell id="KSBHCkZp8ORcdQP4AhJz-2" value="Command" style="whiteSpace=wrap;html=1;align=center;fillColor=#f5f5f5;strokeColor=#666666;fontColor=#333333;" vertex="1" parent="KSBHCkZp8ORcdQP4AhJz-1">
          <mxGeometry x="360" y="240" width="80" height="40" as="geometry" />
        </mxCell>
        <mxCell id="KSBHCkZp8ORcdQP4AhJz-3" value="Enabled" style="shape=associativeEntity;whiteSpace=wrap;html=1;align=center;" vertex="1" parent="KSBHCkZp8ORcdQP4AhJz-1">
          <mxGeometry x="480" y="240" width="80" height="40" as="geometry" />
        </mxCell>
        <mxCell id="KSBHCkZp8ORcdQP4AhJz-8" style="edgeStyle=orthogonalEdgeStyle;rounded=0;orthogonalLoop=1;jettySize=auto;html=1;entryX=1;entryY=0.5;entryDx=0;entryDy=0;endArrow=ERmany;endFill=0;" edge="1" parent="KSBHCkZp8ORcdQP4AhJz-1" source="KSBHCkZp8ORcdQP4AhJz-4" target="KSBHCkZp8ORcdQP4AhJz-3">
          <mxGeometry relative="1" as="geometry" />
        </mxCell>
        <mxCell id="KSBHCkZp8ORcdQP4AhJz-4" value="Alias" style="whiteSpace=wrap;html=1;align=center;" vertex="1" parent="KSBHCkZp8ORcdQP4AhJz-1">
          <mxGeometry x="600" y="240" width="80" height="40" as="geometry" />
        </mxCell>
        <mxCell id="KSBHCkZp8ORcdQP4AhJz-5" value="Name" style="ellipse;whiteSpace=wrap;html=1;align=center;fontStyle=4;" vertex="1" parent="KSBHCkZp8ORcdQP4AhJz-1">
          <mxGeometry x="360" y="160" width="80" height="40" as="geometry" />
        </mxCell>
        <mxCell id="KSBHCkZp8ORcdQP4AhJz-12" style="edgeStyle=orthogonalEdgeStyle;rounded=0;orthogonalLoop=1;jettySize=auto;html=1;entryX=0.5;entryY=1;entryDx=0;entryDy=0;endArrow=ERmany;endFill=0;" edge="1" parent="KSBHCkZp8ORcdQP4AhJz-1" source="KSBHCkZp8ORcdQP4AhJz-9" target="KSBHCkZp8ORcdQP4AhJz-10">
          <mxGeometry relative="1" as="geometry" />
        </mxCell>
        <mxCell id="KSBHCkZp8ORcdQP4AhJz-32" style="edgeStyle=orthogonalEdgeStyle;rounded=0;orthogonalLoop=1;jettySize=auto;html=1;entryX=0;entryY=0.5;entryDx=0;entryDy=0;endArrow=none;endFill=0;" edge="1" parent="KSBHCkZp8ORcdQP4AhJz-1" source="KSBHCkZp8ORcdQP4AhJz-9" target="KSBHCkZp8ORcdQP4AhJz-17">
          <mxGeometry relative="1" as="geometry" />
        </mxCell>
        <mxCell id="KSBHCkZp8ORcdQP4AhJz-33" style="edgeStyle=orthogonalEdgeStyle;rounded=0;orthogonalLoop=1;jettySize=auto;html=1;entryX=0;entryY=0.5;entryDx=0;entryDy=0;endArrow=none;endFill=0;" edge="1" parent="KSBHCkZp8ORcdQP4AhJz-1" source="KSBHCkZp8ORcdQP4AhJz-9" target="KSBHCkZp8ORcdQP4AhJz-26">
          <mxGeometry relative="1" as="geometry" />
        </mxCell>
        <mxCell id="KSBHCkZp8ORcdQP4AhJz-34" style="edgeStyle=orthogonalEdgeStyle;rounded=0;orthogonalLoop=1;jettySize=auto;html=1;entryX=0;entryY=0.5;entryDx=0;entryDy=0;endArrow=none;endFill=0;" edge="1" parent="KSBHCkZp8ORcdQP4AhJz-1" source="KSBHCkZp8ORcdQP4AhJz-9" target="KSBHCkZp8ORcdQP4AhJz-29">
          <mxGeometry relative="1" as="geometry" />
        </mxCell>
        <mxCell id="KSBHCkZp8ORcdQP4AhJz-35" style="edgeStyle=orthogonalEdgeStyle;rounded=0;orthogonalLoop=1;jettySize=auto;html=1;entryX=0;entryY=0.5;entryDx=0;entryDy=0;endArrow=none;endFill=0;" edge="1" parent="KSBHCkZp8ORcdQP4AhJz-1" source="KSBHCkZp8ORcdQP4AhJz-9" target="KSBHCkZp8ORcdQP4AhJz-28">
          <mxGeometry relative="1" as="geometry" />
        </mxCell>
        <mxCell id="KSBHCkZp8ORcdQP4AhJz-9" value="Argument" style="whiteSpace=wrap;html=1;align=center;" vertex="1" parent="KSBHCkZp8ORcdQP4AhJz-1">
          <mxGeometry x="360" y="400" width="80" height="40" as="geometry" />
        </mxCell>
        <mxCell id="KSBHCkZp8ORcdQP4AhJz-14" style="edgeStyle=orthogonalEdgeStyle;rounded=0;orthogonalLoop=1;jettySize=auto;html=1;entryX=1;entryY=0.5;entryDx=0;entryDy=0;endArrow=none;endFill=0;" edge="1" parent="KSBHCkZp8ORcdQP4AhJz-1" source="KSBHCkZp8ORcdQP4AhJz-10" target="KSBHCkZp8ORcdQP4AhJz-13">
          <mxGeometry relative="1" as="geometry" />
        </mxCell>
        <mxCell id="KSBHCkZp8ORcdQP4AhJz-10" value="Enabled" style="shape=associativeEntity;whiteSpace=wrap;html=1;align=center;" vertex="1" parent="KSBHCkZp8ORcdQP4AhJz-1">
          <mxGeometry x="360" y="320" width="80" height="40" as="geometry" />
        </mxCell>
        <mxCell id="KSBHCkZp8ORcdQP4AhJz-13" value="Order" style="ellipse;whiteSpace=wrap;html=1;align=center;fontStyle=4;" vertex="1" parent="KSBHCkZp8ORcdQP4AhJz-1">
          <mxGeometry x="240" y="320" width="80" height="40" as="geometry" />
        </mxCell>
        <mxCell id="KSBHCkZp8ORcdQP4AhJz-17" value="Name" style="ellipse;whiteSpace=wrap;html=1;align=center;fontStyle=4;" vertex="1" parent="KSBHCkZp8ORcdQP4AhJz-1">
          <mxGeometry x="480" y="340" width="80" height="40" as="geometry" />
        </mxCell>
        <mxCell id="KSBHCkZp8ORcdQP4AhJz-37" style="edgeStyle=orthogonalEdgeStyle;rounded=0;orthogonalLoop=1;jettySize=auto;html=1;entryX=0.5;entryY=1;entryDx=0;entryDy=0;endArrow=none;endFill=0;" edge="1" parent="KSBHCkZp8ORcdQP4AhJz-1" source="KSBHCkZp8ORcdQP4AhJz-19" target="KSBHCkZp8ORcdQP4AhJz-36">
          <mxGeometry relative="1" as="geometry" />
        </mxCell>
        <mxCell id="KSBHCkZp8ORcdQP4AhJz-19" value="Image" style="shape=associativeEntity;whiteSpace=wrap;html=1;align=center;fontFamily=Helvetica;fontSize=12;fontColor=#000000;strokeColor=#000000;fillColor=#ffffff;" vertex="1" parent="KSBHCkZp8ORcdQP4AhJz-1">
          <mxGeometry x="240" y="240" width="80" height="40" as="geometry" />
        </mxCell>
        <mxCell id="KSBHCkZp8ORcdQP4AhJz-24" style="edgeStyle=orthogonalEdgeStyle;rounded=0;orthogonalLoop=1;jettySize=auto;html=1;entryX=0;entryY=0.5;entryDx=0;entryDy=0;endArrow=ERmany;endFill=0;" edge="1" parent="KSBHCkZp8ORcdQP4AhJz-1" source="KSBHCkZp8ORcdQP4AhJz-22" target="KSBHCkZp8ORcdQP4AhJz-19">
          <mxGeometry relative="1" as="geometry" />
        </mxCell>
        <mxCell id="KSBHCkZp8ORcdQP4AhJz-22" value="Media" style="whiteSpace=wrap;html=1;align=center;" vertex="1" parent="KSBHCkZp8ORcdQP4AhJz-1">
          <mxGeometry x="120" y="240" width="80" height="40" as="geometry" />
        </mxCell>
        <mxCell id="KSBHCkZp8ORcdQP4AhJz-25" value="Note:&lt;br&gt;although Commands are presented to users on UX menus, Commands != MenuItems (MenuItems can refer to them)" style="shape=note2;boundedLbl=1;whiteSpace=wrap;html=1;size=25;verticalAlign=middle;align=left;fontStyle=2" vertex="1" parent="KSBHCkZp8ORcdQP4AhJz-1">
          <mxGeometry x="570" y="350" width="110" height="140" as="geometry" />
        </mxCell>
        <mxCell id="KSBHCkZp8ORcdQP4AhJz-26" value="Type" style="ellipse;whiteSpace=wrap;html=1;align=center;fontStyle=4;" vertex="1" parent="KSBHCkZp8ORcdQP4AhJz-1">
          <mxGeometry x="480" y="380" width="80" height="40" as="geometry" />
        </mxCell>
        <mxCell id="KSBHCkZp8ORcdQP4AhJz-28" value="Default Value" style="ellipse;whiteSpace=wrap;html=1;align=center;fontStyle=4;" vertex="1" parent="KSBHCkZp8ORcdQP4AhJz-1">
          <mxGeometry x="480" y="460" width="80" height="40" as="geometry" />
        </mxCell>
        <mxCell id="KSBHCkZp8ORcdQP4AhJz-29" value="Mandatory" style="ellipse;whiteSpace=wrap;html=1;align=center;fontStyle=4;" vertex="1" parent="KSBHCkZp8ORcdQP4AhJz-1">
          <mxGeometry x="480" y="420" width="80" height="40" as="geometry" />
        </mxCell>
        <mxCell id="KSBHCkZp8ORcdQP4AhJz-36" value="Purpose/Size" style="ellipse;whiteSpace=wrap;html=1;align=center;fontStyle=4;" vertex="1" parent="KSBHCkZp8ORcdQP4AhJz-1">
          <mxGeometry x="240" y="160" width="80" height="40" as="geometry" />
        </mxCell>
        <mxCell id="l7R6-TLFAiUn61VaziCV-0" value="&lt;font style=&quot;font-size: 12px&quot;&gt;Diagram:&amp;nbsp; Information - Information Model Part - Base System Module -&lt;br style=&quot;font-size: 12px&quot;&gt;Command Elements&lt;/font&gt;" style="text;strokeColor=none;fillColor=none;html=1;fontSize=12;fontStyle=2;verticalAlign=middle;align=left;shadow=0;glass=0;comic=0;opacity=30;fontColor=#808080;" vertex="1" parent="KSBHCkZp8ORcdQP4AhJz-1">
          <mxGeometry x="120" y="520" width="520" height="20" as="geometry" />
        </mxCell>
      </root>
    </mxGraphModel>
  </diagram>
</mxfile>
